<svg xmlns="http://www.w3.org/2000/svg" viewBox="0 0 32 32" width="32" height="32">
  <defs>
    <linearGradient id="neonGrad" x1="0%" y1="0%" x2="100%" y2="100%">
      <stop offset="0%" stop-color="#a855f7" />
      <stop offset="100%" stop-color="#f97316" />
    </linearGradient>
  </defs>
  <circle cx="16" cy="16" r="15" fill="#09090b" stroke="url(#neonGrad)" stroke-width="1.5"/>
  <g stroke="url(#neonGrad)" stroke-width="1.2" stroke-linecap="round" stroke-linejoin="round" fill="none">
    <polygon points="16,11 20.5,14 19,19.5 13,19.5 11.5,14" fill="url(#neonGrad)" fill-opacity="0.1"/>
    <line x1="16" y1="11" x2="16" y2="4.5"/>
    <line x1="20.5" y1="14" x2="26.5" y2="12"/>
    <line x1="19" y1="19.5" x2="22.5" y2="25"/>
    <line x1="13" y1="19.5" x2="9.5" y2="25"/>
    <line x1="11.5" y1="14" x2="5.5" y2="12"/>
    <path d="M 16 4.5 A 11.5 11.5 0 0 1 26.5 12" />
    <path d="M 26.5 12 A 11.5 11.5 0 0 1 22.5 25" />
    <path d="M 22.5 25 A 11.5 11.5 0 0 1 9.5 25" />
    <path d="M 9.5 25 A 11.5 11.5 0 0 1 5.5 12" />
    <path d="M 5.5 12 A 11.5 11.5 0 0 1 16 4.5" />
  </g>
</svg>
